<svg width="126" height="32" viewBox="0 0 126 32" fill="none" xmlns="http://www.w3.org/2000/svg">
<path d="M36.4002 24.0058C35.5765 24.0058 34.8992 23.7641 34.3684 23.2808C33.8559 22.7788 33.5996 22.1654 33.5996 21.4404C33.5996 20.6968 33.8559 20.074 34.3684 19.5721C34.8992 19.0702 35.5765 18.8192 36.4002 18.8192C37.2056 18.8192 37.8645 19.0702 38.3771 19.5721C38.9079 20.074 39.1733 20.6968 39.1733 21.4404C39.1733 22.1654 38.9079 22.7788 38.3771 23.2808C37.8645 23.7641 37.2056 24.0058 36.4002 24.0058Z" fill="url(#paint0_linear_1642_4480)"/>
<path d="M48.1853 24.0058C46.8491 24.0058 45.6593 23.7734 44.616 23.3087C43.5726 22.8439 42.7489 22.2119 42.1449 21.4125C41.5408 20.5946 41.2022 19.6837 41.129 18.6798H45.7691C45.824 19.2189 46.0712 19.6558 46.5105 19.9904C46.9498 20.325 47.4898 20.4923 48.1304 20.4923C48.7161 20.4923 49.1646 20.3808 49.4758 20.1577C49.8053 19.916 49.97 19.6093 49.97 19.2375C49.97 18.7913 49.7412 18.466 49.2836 18.2615C48.826 18.0385 48.0846 17.7968 47.0596 17.5365C45.9613 17.2763 45.0461 17.0067 44.3139 16.7279C43.5818 16.4304 42.9502 15.975 42.4194 15.3615C41.8886 14.7295 41.6232 13.8837 41.6232 12.824C41.6232 11.9317 41.8611 11.1231 42.3371 10.3981C42.8313 9.65449 43.5451 9.06891 44.4787 8.64135C45.4305 8.21378 46.5562 8 47.8558 8C49.7778 8 51.2879 8.48333 52.3862 9.45C53.5028 10.4167 54.1434 11.6994 54.3082 13.2981H49.97C49.8968 12.759 49.6588 12.3314 49.2561 12.0154C48.8717 11.6994 48.3592 11.5413 47.7186 11.5413C47.1694 11.5413 46.7484 11.6529 46.4556 11.876C46.1627 12.0804 46.0162 12.3686 46.0162 12.7404C46.0162 13.1865 46.245 13.5212 46.7027 13.7442C47.1786 13.9673 47.9108 14.1904 48.8992 14.4135C50.0341 14.7109 50.9584 15.0083 51.6723 15.3058C52.3862 15.5846 53.0085 16.0494 53.5394 16.7C54.0885 17.3321 54.3722 18.1872 54.3905 19.2654C54.3905 20.1763 54.1343 20.9942 53.6217 21.7192C53.1275 22.4256 52.4045 22.9833 51.4527 23.3923C50.5191 23.8013 49.43 24.0058 48.1853 24.0058Z" fill="url(#paint1_linear_1642_4480)"/>
<path d="M61.9581 10.426C62.4157 9.70096 63.0472 9.11539 63.8526 8.66923C64.658 8.22308 65.6006 8 66.6806 8C67.9436 8 69.0876 8.32532 70.1127 8.97596C71.1377 9.6266 71.9431 10.5561 72.5289 11.7644C73.1329 12.9728 73.4349 14.3763 73.4349 15.975C73.4349 17.5737 73.1329 18.9865 72.5289 20.2135C71.9431 21.4218 71.1377 22.3606 70.1127 23.0298C69.0876 23.6804 67.9436 24.0058 66.6806 24.0058C65.6189 24.0058 64.6763 23.7827 63.8526 23.3365C63.0472 22.8904 62.4157 22.3141 61.9581 21.6077V31.2H57.263V8.22308H61.9581V10.426ZM68.6575 15.975C68.6575 14.7853 68.328 13.8558 67.669 13.1865C67.0284 12.4987 66.2321 12.1548 65.2803 12.1548C64.3468 12.1548 63.5505 12.4987 62.8916 13.1865C62.2509 13.8744 61.9306 14.8131 61.9306 16.0029C61.9306 17.1926 62.2509 18.1314 62.8916 18.8192C63.5505 19.5071 64.3468 19.851 65.2803 19.851C66.2138 19.851 67.0101 19.5071 67.669 18.8192C68.328 18.1128 68.6575 17.1647 68.6575 15.975Z" fill="url(#paint2_linear_1642_4480)"/>
<path d="M74.9646 15.975C74.9646 14.3763 75.2575 12.9728 75.8432 11.7644C76.4472 10.5561 77.2618 9.6266 78.2868 8.97596C79.3119 8.32532 80.4559 8 81.7189 8C82.7989 8 83.7416 8.22308 84.547 8.66923C85.3707 9.11539 86.0022 9.70096 86.4415 10.426V8.22308H91.1366V23.7827H86.4415V21.5798C85.9839 22.3048 85.3432 22.8904 84.5195 23.3365C83.7141 23.7827 82.7714 24.0058 81.6915 24.0058C80.4468 24.0058 79.3119 23.6804 78.2868 23.0298C77.2618 22.3606 76.4472 21.4218 75.8432 20.2135C75.2575 18.9865 74.9646 17.5737 74.9646 15.975ZM86.4415 16.0029C86.4415 14.8131 86.112 13.8744 85.453 13.1865C84.8124 12.4987 84.0253 12.1548 83.0918 12.1548C82.1582 12.1548 81.362 12.4987 80.703 13.1865C80.0624 13.8558 79.742 14.7853 79.742 15.975C79.742 17.1647 80.0624 18.1128 80.703 18.8192C81.362 19.5071 82.1582 19.851 83.0918 19.851C84.0253 19.851 84.8124 19.5071 85.453 18.8192C86.112 18.1314 86.4415 17.1926 86.4415 16.0029Z" fill="url(#paint3_linear_1642_4480)"/>
<path d="M93.5997 16.0029C93.5997 14.3856 93.92 12.9728 94.5607 11.7644C95.2197 10.5561 96.1257 9.6266 97.2789 8.97596C98.4504 8.32532 99.7866 8 101.288 8C103.21 8 104.811 8.51122 106.093 9.53365C107.392 10.5561 108.243 11.9968 108.646 13.8558H103.649C103.228 12.666 102.413 12.0712 101.205 12.0712C100.345 12.0712 99.6585 12.4151 99.146 13.1029C98.6334 13.7721 98.3772 14.7388 98.3772 16.0029C98.3772 17.267 98.6334 18.2429 99.146 18.9308C99.6585 19.6 100.345 19.9346 101.205 19.9346C102.413 19.9346 103.228 19.3397 103.649 18.15H108.646C108.243 19.9718 107.392 21.4032 106.093 22.4442C104.793 23.4853 103.191 24.0058 101.288 24.0058C99.7866 24.0058 98.4504 23.6804 97.2789 23.0298C96.1257 22.3792 95.2197 21.4497 94.5607 20.2413C93.92 19.033 93.5997 17.6202 93.5997 16.0029Z" fill="url(#paint4_linear_1642_4480)"/>
<path d="M125.6 15.7519C125.6 16.1981 125.572 16.6628 125.517 17.1462H114.892C114.965 18.1128 115.267 18.8564 115.798 19.3769C116.347 19.8788 117.015 20.1298 117.802 20.1298C118.973 20.1298 119.788 19.6279 120.246 18.624H125.243C124.986 19.6465 124.52 20.5667 123.842 21.3846C123.183 22.2026 122.351 22.8439 121.344 23.3087C120.337 23.7734 119.211 24.0058 117.967 24.0058C116.466 24.0058 115.129 23.6804 113.958 23.0298C112.786 22.3792 111.871 21.4497 111.212 20.2413C110.553 19.033 110.224 17.6202 110.224 16.0029C110.224 14.3856 110.544 12.9728 111.185 11.7644C111.844 10.5561 112.759 9.6266 113.931 8.97596C115.102 8.32532 116.447 8 117.967 8C119.449 8 120.767 8.31603 121.92 8.94808C123.074 9.58013 123.971 10.4817 124.611 11.6529C125.27 12.824 125.6 14.1904 125.6 15.7519ZM120.795 14.4971C120.795 13.6792 120.52 13.0285 119.971 12.5452C119.422 12.0619 118.735 11.8202 117.912 11.8202C117.125 11.8202 116.457 12.0526 115.907 12.5173C115.377 12.9821 115.047 13.642 114.919 14.4971H120.795Z" fill="url(#paint5_linear_1642_4480)"/>
<rect width="32" height="32" rx="8" fill="url(#paint6_linear_1642_4480)"/>
<path d="M7.776 19.3707C7.98933 20.4942 8.64356 21.056 9.73867 21.056C10.4924 21.056 11.0258 20.7218 11.3387 20.0533C11.6516 19.3849 11.808 18.2969 11.808 16.7893C11.4951 17.2302 11.0684 17.5716 10.528 17.8133C9.98756 18.0551 9.38311 18.176 8.71467 18.176C7.80444 18.176 6.99378 17.9911 6.28267 17.6213C5.57156 17.2373 5.00978 16.6756 4.59733 15.936C4.19911 15.1822 4 14.272 4 13.2053C4 12.1529 4.21333 11.2356 4.64 10.4533C5.08089 9.67111 5.69956 9.06667 6.496 8.64C7.30667 8.21333 8.25956 8 9.35467 8C11.4596 8 12.9316 8.65422 13.7707 9.96267C14.6098 11.2711 15.0293 13.1982 15.0293 15.744C15.0293 17.5929 14.8587 19.1218 14.5173 20.3307C14.1902 21.5253 13.6284 22.4356 12.832 23.0613C12.0498 23.6871 10.976 24 9.61067 24C8.52978 24 7.60533 23.7867 6.83733 23.36C6.08356 22.9333 5.50044 22.3716 5.088 21.6747C4.68978 20.9778 4.46222 20.2098 4.40533 19.3707H7.776ZM9.54667 15.296C10.144 15.296 10.6204 15.1182 10.976 14.7627C11.3316 14.3929 11.5093 13.8951 11.5093 13.2693C11.5093 12.5867 11.3244 12.0604 10.9547 11.6907C10.5849 11.3209 10.0871 11.136 9.46133 11.136C8.83556 11.136 8.33778 11.328 7.968 11.712C7.61244 12.0818 7.43467 12.5938 7.43467 13.248C7.43467 13.8596 7.61244 14.3573 7.968 14.7413C8.33778 15.1111 8.864 15.296 9.54667 15.296Z" fill="white"/>
<path d="M20.901 19.3707C21.1143 20.4942 21.7686 21.056 22.8637 21.056C23.6174 21.056 24.1508 20.7218 24.4637 20.0533C24.7766 19.3849 24.933 18.2969 24.933 16.7893C24.6201 17.2302 24.1934 17.5716 23.653 17.8133C23.1126 18.0551 22.5081 18.176 21.8397 18.176C20.9294 18.176 20.1188 17.9911 19.4077 17.6213C18.6966 17.2373 18.1348 16.6756 17.7223 15.936C17.3241 15.1822 17.125 14.272 17.125 13.2053C17.125 12.1529 17.3383 11.2356 17.765 10.4533C18.2059 9.67111 18.8246 9.06667 19.621 8.64C20.4317 8.21333 21.3846 8 22.4797 8C24.5846 8 26.0566 8.65422 26.8957 9.96267C27.7348 11.2711 28.1543 13.1982 28.1543 15.744C28.1543 17.5929 27.9837 19.1218 27.6423 20.3307C27.3152 21.5253 26.7534 22.4356 25.957 23.0613C25.1748 23.6871 24.101 24 22.7357 24C21.6548 24 20.7303 23.7867 19.9623 23.36C19.2086 22.9333 18.6254 22.3716 18.213 21.6747C17.8148 20.9778 17.5872 20.2098 17.5303 19.3707H20.901ZM22.6717 15.296C23.269 15.296 23.7454 15.1182 24.101 14.7627C24.4566 14.3929 24.6343 13.8951 24.6343 13.2693C24.6343 12.5867 24.4494 12.0604 24.0797 11.6907C23.7099 11.3209 23.2121 11.136 22.5863 11.136C21.9606 11.136 21.4628 11.328 21.093 11.712C20.7374 12.0818 20.5597 12.5938 20.5597 13.248C20.5597 13.8596 20.7374 14.3573 21.093 14.7413C21.4628 15.1111 21.989 15.296 22.6717 15.296Z" fill="white"/>
<defs>
<linearGradient id="paint0_linear_1642_4480" x1="125.6" y1="8" x2="114.598" y2="51.6258" gradientUnits="userSpaceOnUse">
<stop stop-color="#557AF7"/>
<stop offset="1" stop-color="#6CC2F3"/>
</linearGradient>
<linearGradient id="paint1_linear_1642_4480" x1="125.6" y1="8" x2="114.598" y2="51.6258" gradientUnits="userSpaceOnUse">
<stop stop-color="#557AF7"/>
<stop offset="1" stop-color="#6CC2F3"/>
</linearGradient>
<linearGradient id="paint2_linear_1642_4480" x1="125.6" y1="8" x2="114.598" y2="51.6258" gradientUnits="userSpaceOnUse">
<stop stop-color="#557AF7"/>
<stop offset="1" stop-color="#6CC2F3"/>
</linearGradient>
<linearGradient id="paint3_linear_1642_4480" x1="125.6" y1="8" x2="114.598" y2="51.6258" gradientUnits="userSpaceOnUse">
<stop stop-color="#557AF7"/>
<stop offset="1" stop-color="#6CC2F3"/>
</linearGradient>
<linearGradient id="paint4_linear_1642_4480" x1="125.6" y1="8" x2="114.598" y2="51.6258" gradientUnits="userSpaceOnUse">
<stop stop-color="#557AF7"/>
<stop offset="1" stop-color="#6CC2F3"/>
</linearGradient>
<linearGradient id="paint5_linear_1642_4480" x1="125.6" y1="8" x2="114.598" y2="51.6258" gradientUnits="userSpaceOnUse">
<stop stop-color="#557AF7"/>
<stop offset="1" stop-color="#6CC2F3"/>
</linearGradient>
<linearGradient id="paint6_linear_1642_4480" x1="32" y1="0" x2="0" y2="32" gradientUnits="userSpaceOnUse">
<stop stop-color="#557AF7"/>
<stop offset="1" stop-color="#6CC2F3"/>
</linearGradient>
</defs>
</svg>
