<svg width="208" height="170" viewBox="0 0 208 170" fill="none" xmlns="http://www.w3.org/2000/svg">
<rect width="208" height="170" rx="24" fill="white"/>
<path d="M57.1716 139.172L30.8284 112.828C28.3086 110.309 24 112.093 24 115.657L24 142C24 144.209 25.7909 146 28 146L54.3431 146C57.9068 146 59.6914 141.691 57.1716 139.172Z" fill="black"/>
<path d="M150.828 139.172L177.172 112.828C179.691 110.309 184 112.093 184 115.657L184 142C184 144.209 182.209 146 180 146L153.657 146C150.093 146 148.309 141.691 150.828 139.172Z" fill="black"/>
<path d="M101.177 143.189C102.738 144.743 105.262 144.743 106.823 143.189L182.823 67.4991C183.576 66.7485 184 65.7286 184 64.6649L184 33.629C184 30.0693 179.7 28.2829 177.177 30.7948L106.823 100.862C105.262 102.417 102.738 102.417 101.177 100.862L30.8226 30.7948C28.3004 28.2829 24 30.0693 24 33.629L24 64.6649C24 65.7286 24.4237 66.7485 25.1774 67.4991L101.177 143.189Z" fill="black"/>
</svg>
